<?xml version="1.0" encoding="UTF-8"?>
<svg version="1.1" xmlns="http://www.w3.org/2000/svg" viewBox="0 0 1024 1024" width="100%" height="100%">
<path d="M0 0 C337.92 0 675.84 0 1024 0 C1024 337.92 1024 675.84 1024 1024 C686.08 1024 348.16 1024 0 1024 C0 686.08 0 348.16 0 0 Z " fill="#F5F5F5" transform="translate(0,0)"/>
<path d="M0 0 C2.02905273 0.15917969 2.02905273 0.15917969 4 1 C5.23098544 3.76893417 6.17098007 6.3689771 7.0625 9.25 C7.66914135 11.09247951 8.28007937 12.933548 8.89453125 14.7734375 C9.22791504 15.77600586 9.56129883 16.77857422 9.90478516 17.81152344 C11.87691121 23.55293367 14.0742456 29.20833629 16.25 34.875 C17.20292378 37.37068244 18.15514687 39.86660915 19.10546875 42.36328125 C19.34470062 42.99177475 19.5839325 43.62026825 19.83041382 44.26780701 C22.45676585 51.18134934 25.01830611 58.11836451 27.5625 65.0625 C27.78995911 65.68301239 28.01741821 66.30352478 28.25177002 66.94284058 C31.60062486 76.08751616 34.87266446 85.25815267 38.125 94.4375 C41.08576156 102.79062236 44.15933821 111.07884179 47.4375 119.3125 C52.27225587 131.46858021 56.60383101 143.79286298 60.9367218 156.13383484 C64.51507975 166.32338655 68.16403001 176.4878566 71.8046875 186.65527344 C72.98895441 189.96909221 74.1668524 193.28512036 75.34375 196.6015625 C79.64936655 208.69995134 84.16483741 220.67505093 89.02050781 232.56298828 C90.02902175 235.07220714 90.99898177 237.59368668 91.9609375 240.12109375 C96.13126388 250.99361999 100.98307649 261.0275064 107 271 C108.09466033 269.38260862 109.1750195 267.75553765 110.25 266.125 C110.85328125 265.22007812 111.4565625 264.31515625 112.078125 263.3828125 C116.21346141 256.103948 118.69263719 248.1267756 121.25 240.1875 C123.53465452 233.21678432 125.9622823 226.3348609 128.625 219.5 C132.33399072 209.94617685 135.7461483 200.29905543 139.125 190.625 C143.84203021 177.12622937 148.60675881 163.64603306 153.4375 150.1875 C153.72441711 149.38669006 154.01133423 148.58588013 154.3069458 147.76080322 C157.17426795 139.75991964 160.06966224 131.77225395 163.0703125 123.8203125 C165.72342396 116.78898199 168.25887203 109.72031698 170.75326538 102.63131714 C174.794028 91.15206219 178.91683975 79.70679855 183.15087891 68.29736328 C187.71320685 55.95362954 192.16177943 43.56731117 196.625 31.1875 C197.00333984 30.14118408 197.38167969 29.09486816 197.77148438 28.0168457 C199.48684806 23.26105228 201.18114634 18.5015912 202.796875 13.7109375 C203.06677246 12.91792236 203.33666992 12.12490723 203.61474609 11.30786133 C204.10579673 9.85757464 204.5885077 8.40442519 205.06103516 6.94799805 C206.27564411 3.37306898 206.74899398 2.16733735 210 0 C211.65 1.32 213.3 2.64 215 4 C219.29 5.98 223.58 7.96 228 10 C228.33 60.82 228.66 111.64 229 164 C226.03 164.33 223.06 164.66 220 165 C206.80249618 170.35770224 196.07021492 178.66943711 189.75 191.546875 C183.95642106 205.26402514 182.92952715 219.82966713 188 234 C193.40507167 246.96860431 203.90199791 257.21627493 216.80566406 262.77832031 C230.49980642 268.2016741 243.48162334 268.79380756 257.41796875 263.61328125 C272.17273576 256.9680045 281.1998362 246.98869868 287 232 C291.47604424 217.59124982 291.45849454 205.00227805 284.75 191.48046875 C277.16668426 177.8003395 267.71720216 169.90573405 253 165 C252.67 116.16 252.34 67.32 252 17 C259.87656807 17 259.87656807 17 262.98486328 17.83862305 C263.6831424 18.02269211 264.38142151 18.20676117 265.1008606 18.39640808 C265.83327972 18.5994606 266.56569885 18.80251312 267.3203125 19.01171875 C268.10082977 19.22182083 268.88134705 19.43192291 269.68551636 19.64839172 C271.33219516 20.09392704 272.97770273 20.54381149 274.62207031 20.99780273 C277.09397168 21.67894996 279.5698978 22.34344067 282.046875 23.00585938 C291.27870016 25.50504434 300.14374899 28.36631071 309 32 C310.23234375 32.46664062 311.4646875 32.93328125 312.734375 33.4140625 C321.89832348 37.09388637 329.84180857 42.05703548 337.96875 47.61816406 C339.82835974 48.88323511 341.70625791 50.11307014 343.59375 51.3359375 C358.621927 61.29199785 371.4852639 74.71327304 381 90 C381.46132324 90.73508789 381.92264648 91.47017578 382.39794922 92.22753906 C388.55524398 102.15023284 393.76544158 111.73695694 397 123 C397.34823822 124.17183334 397.69647644 125.34366669 398.05526733 126.55101013 C402.34896999 142.70737764 401.62334124 159.46629663 401.60316515 176.0462296 C401.60100026 179.57716618 401.61085578 183.10803279 401.62037599 186.6389541 C401.64242877 194.97884028 401.64351746 203.31854617 401.63134766 211.65844727 C401.61926046 220.20940655 401.64394034 228.75970829 401.68648779 237.31055552 C401.72190625 244.70568062 401.73369399 252.1005981 401.72721231 259.49580473 C401.72361795 263.88933907 401.72854057 268.28240346 401.75664139 272.67585945 C401.96124442 307.61282272 401.96124442 307.61282272 395 322 C394.51246246 323.04241348 394.02492493 324.08482697 393.52261353 325.15882874 C388.20679228 335.98238434 380.24815823 346.25496477 372 355 C371.24396484 355.85078125 371.24396484 355.85078125 370.47265625 356.71875 C356.56146986 371.68432949 331.39348053 385.31208981 310.71422994 386.12995183 C308.82329309 386.1334478 308.82329309 386.1334478 306.8941555 386.13701439 C306.18665004 386.13966622 305.47914458 386.14231804 304.75019956 386.14505023 C302.37335977 386.15272529 299.9965718 386.15330172 297.61972046 386.15390015 C295.90065398 386.15791599 294.18158845 386.16235442 292.46252406 386.1671797 C287.73324372 386.17913815 283.00397358 386.18479201 278.27468109 386.18936086 C273.17550997 386.19531997 268.07635102 386.2069293 262.97718811 386.21765137 C250.65723527 386.24217225 238.33727839 386.25680411 226.01730865 386.26971143 C222.53586023 386.27342425 219.05441221 386.27739743 215.57296419 386.2814641 C193.94242214 386.30670665 172.31187944 386.3287546 150.68132591 386.34119225 C145.67101413 386.34412184 140.66070236 386.34708351 135.65039062 386.35009766 C134.40513444 386.35084371 133.15987826 386.35158976 131.87688704 386.35235842 C111.72413464 386.36500018 91.57147071 386.39820715 71.41875963 386.43989949 C50.71555182 386.48237844 30.01238921 386.50589435 9.30913794 386.51111281 C-2.3095896 386.51452066 -13.92817901 386.52620164 -25.54686356 386.55921555 C-35.44667972 386.58729946 -45.34632944 386.59817898 -55.24618234 386.58702008 C-60.29161785 386.58185433 -65.3367053 386.58458383 -70.38208961 386.60948563 C-75.01407043 386.63215463 -79.64545671 386.63110301 -84.27744918 386.61228175 C-85.94048833 386.60950621 -87.60356936 386.61494162 -89.26654179 386.63009469 C-104.64486717 386.76149195 -119.54011157 383.78023587 -133.5 377.125 C-134.24080811 376.78114258 -134.98161621 376.43728516 -135.74487305 376.08300781 C-155.82164623 366.56753379 -171.04551729 351.20591124 -182 332 C-182.67675781 330.83597656 -182.67675781 330.83597656 -183.3671875 329.6484375 C-189.58378392 318.1497657 -195.10503869 303.84145633 -195.14044189 290.6844635 C-195.14615204 289.41045685 -195.15186218 288.1364502 -195.15774536 286.82383728 C-195.1589906 285.419098 -195.16011572 284.01435861 -195.16113281 282.60961914 C-195.16576439 281.12422564 -195.17078951 279.63883333 -195.17617798 278.15344238 C-195.18927713 274.12193572 -195.19574287 270.09044571 -195.20018864 266.0589211 C-195.20312528 263.53491383 -195.20723135 261.01091105 -195.21169281 258.48690605 C-195.2253654 250.57503121 -195.23503145 242.66316668 -195.2388947 234.75128084 C-195.24336554 225.64695387 -195.26086898 216.54277778 -195.2898953 207.43849665 C-195.31159678 200.3843045 -195.32160359 193.33015452 -195.32293582 186.27592939 C-195.32397843 182.07135072 -195.3297685 177.86691392 -195.34775543 173.66237068 C-195.36438166 169.69865978 -195.36632207 165.7351951 -195.35761642 161.77146149 C-195.35685358 160.32764203 -195.36108764 158.88380854 -195.37107468 157.44002342 C-195.60358191 121.68998546 -177.51203468 93.336976 -154 68 C-153.38898438 67.32324219 -152.77796875 66.64648438 -152.1484375 65.94921875 C-131.99962927 44.55718618 -101.29017246 33.46444284 -74.3125 24 C-73.3239502 23.65066406 -72.33540039 23.30132812 -71.31689453 22.94140625 C-62.59146857 19.97571345 -54.09620922 18.14028452 -45 16 C-45 30.19 -45 44.38 -45 59 C-51.93 60.485 -51.93 60.485 -59 62 C-72.84823718 68.39149408 -84.42358458 77.70094917 -90.82421875 91.66796875 C-93.95703041 100.54600312 -95.44746872 108.94822915 -95.40405273 118.34545898 C-95.41434761 119.94073425 -95.41434761 119.94073425 -95.42485046 121.5682373 C-95.44298264 125.04432965 -95.4393005 128.51996479 -95.43359375 131.99609375 C-95.43816185 134.43644861 -95.44346928 136.87680219 -95.44947815 139.31715393 C-95.45838249 144.41664883 -95.45601636 149.51598689 -95.44604492 154.61547852 C-95.43455543 161.12260016 -95.45478096 167.6291791 -95.48396206 174.13622952 C-95.50238225 179.17140593 -95.50202003 184.20645366 -95.49632454 189.24165535 C-95.49617206 191.6396263 -95.5021554 194.03760639 -95.51461601 196.43554497 C-95.740813 214.12579006 -95.740813 214.12579006 -91 231 C-90.66935043 231.7800238 -90.33870087 232.56004761 -89.99803162 233.3637085 C-89.16171093 235.25695363 -88.24514123 237.06076155 -87.25 238.875 C-86.73131348 239.82330688 -86.73131348 239.82330688 -86.20214844 240.79077148 C-83.19441135 246.05431139 -80.09012357 249.74303282 -75 253 C-74.13890625 253.57492187 -73.2778125 254.14984375 -72.390625 254.7421875 C-64.11517716 259.59562583 -56.33619283 260.09342799 -47 259 C-45.64701788 258.37417127 -44.30808669 257.71493457 -43 257 C-42.91289711 253.89601022 -42.85957691 250.79233452 -42.8125 247.6875 C-42.78736328 246.80642578 -42.76222656 245.92535156 -42.73632812 245.01757812 C-42.72666016 244.17001953 -42.71699219 243.32246094 -42.70703125 242.44921875 C-42.6913208 241.66893311 -42.67561035 240.88864746 -42.65942383 240.0847168 C-43.08776547 237.46277464 -43.95321167 236.6362488 -46 235 C-49.00428303 233.49785848 -51.90844969 233.96043221 -55.25 233.9375 C-58.95403449 233.78352974 -62.07955842 233.63361383 -65.21875 231.47265625 C-71.09779868 223.8988818 -72.44925813 214.89535172 -72.37231445 205.57421875 C-72.37596512 204.57298981 -72.37961578 203.57176086 -72.38337708 202.54019165 C-72.39143226 199.2557844 -72.37791409 195.97187838 -72.36328125 192.6875 C-72.36276204 190.3902181 -72.36328209 188.09293576 -72.36479187 185.7956543 C-72.36470237 180.99098032 -72.35431842 176.18647492 -72.33618164 171.38183594 C-72.31349557 165.23869256 -72.31295292 159.09579521 -72.31969929 152.95262146 C-72.32304879 148.21185133 -72.31639067 143.47113677 -72.30657005 138.7303772 C-72.3027347 136.46587414 -72.3015629 134.20136488 -72.3031559 131.93685913 C-72.30352884 128.7663811 -72.29084217 125.59621255 -72.2746582 122.42578125 C-72.27713562 121.49980133 -72.27961304 120.57382141 -72.28216553 119.61978149 C-72.20476737 110.06696804 -70.59091489 102.78612074 -65 95 C-64.4225 94.13375 -63.845 93.2675 -63.25 92.375 C-57.05560443 85.83647134 -49.6158225 81.8161827 -40.61694336 81.51733398 C-26.3226213 81.41534455 -14.89184597 84.52768198 -4.015625 94.16796875 C3.68769245 104.99142835 2.53742686 117.41820956 2.42578125 130.08984375 C2.42084825 132.24255571 2.41755531 134.39527198 2.41581726 136.54798889 C2.40820489 141.04572403 2.38773265 145.54313781 2.35668945 150.04077148 C2.31714115 155.77771594 2.29907847 161.51445205 2.28938007 167.2515173 C2.27935742 172.7601537 2.25953197 178.26874085 2.23828125 183.77734375 C2.2348855 184.81384504 2.23148975 185.85034634 2.2279911 186.91825676 C2.09738073 219.99267116 2.09738073 219.99267116 -6.328125 229.4609375 C-9.75693585 232.61736618 -13.87920736 233.7250886 -18.3125 234.8125 C-21.22557164 235.74276276 -21.22557164 235.74276276 -22.15625 238.5546875 C-23.14203919 242.57999336 -23.25874804 246.19136325 -23.1875 250.3125 C-23.18685547 251.04017578 -23.18621094 251.76785156 -23.18554688 252.51757812 C-23.46949126 256.05275843 -23.46949126 256.05275843 -22 259 C-11.3718723 260.08414012 -2.7741048 258.14665467 5.73608398 251.59985352 C16.38621233 242.90260607 22.65700325 231.62523119 25 218 C25.08721742 216.46386441 25.13038544 214.92471438 25.13371277 213.3861084 C25.13797775 212.48929352 25.14224274 211.59247864 25.14663696 210.66848755 C25.14618378 209.69700775 25.14573059 208.72552795 25.14526367 207.72460938 C25.14862228 206.69137543 25.1519809 205.65814148 25.15544128 204.59359741 C25.16494045 201.17696936 25.16689428 197.76039043 25.16796875 194.34375 C25.17118344 191.96065247 25.17454767 189.57755513 25.17805481 187.19445801 C25.18404448 182.19441267 25.18589501 177.19438461 25.18530273 172.19433594 C25.18520144 165.8138449 25.19882047 159.43346596 25.21607494 153.0530014 C25.22724475 148.12678528 25.22922037 143.20059577 25.22869301 138.27436829 C25.2298669 135.92384965 25.23425521 133.57333018 25.24202538 131.2228241 C25.30970719 108.62232809 24.6738011 91.93893221 8 75 C7.43539062 74.35160156 6.87078125 73.70320313 6.2890625 73.03515625 C-1.14764448 64.74594871 -10.30743545 62.13851291 -21 60 C-21 43.5 -21 27 -21 10 C-14.73 7.36 -8.46 4.72 -2 2 C-1.34 1.34 -0.68 0.68 0 0 Z " fill="#28313F" transform="translate(419,438)"/>
<path d="M0 0 C1.15505817 13.39867477 -5.39731636 25.36181264 -13 36 C-15.07267073 38.4527799 -17.18539513 40.80546157 -19.43359375 43.09765625 C-21.08490819 45.10311793 -21.59851592 46.46103731 -22 49 C-19.58236945 48.56740367 -17.16601351 48.12897156 -14.75 47.6875 C-14.08742188 47.56955078 -13.42484375 47.45160156 -12.7421875 47.33007812 C-8.51553631 46.5525338 -4.41736284 45.568109 -0.2734375 44.42578125 C6.22750356 42.78155239 12.43926362 42.46188952 19.125 42.5 C20.89170044 42.50858032 20.89170044 42.50858032 22.6940918 42.51733398 C45.05149224 42.97074115 64.22547746 52.12191464 80.4609375 67.30078125 C97.40646998 84.98953884 103.42103934 105.0025043 103.25 129.125 C103.24723053 129.80331879 103.24446106 130.48163757 103.24160767 131.18051147 C103.08246238 164.4614632 103.08246238 164.4614632 96.4375 175.625 C95.72559827 178.03429403 95.72559827 178.03429403 97.1796875 180.00390625 C98.72152195 182.06583318 100.34846541 184.02600219 102 186 C105.49865933 192.99731866 104.0220597 205.87232292 102.046875 213.234375 C96.97320841 227.05574262 87.63147988 238.43302856 75 246 C74.38640625 246.37769531 73.7728125 246.75539063 73.140625 247.14453125 C68.07553385 249.78561449 62.53458384 249.2702238 57 249 C57.03222656 250.16789063 57.06445312 251.33578125 57.09765625 252.5390625 C57.08186072 262.81518011 53.17829599 273.05097786 49.5625 282.5625 C49.28656006 283.29968262 49.01062012 284.03686523 48.72631836 284.79638672 C46.75192116 289.79409739 44.20562614 293.69260382 41 298 C40.38875164 299.23658935 39.80209398 300.48589161 39.25 301.75 C36.46900812 307.5362573 32.21215087 312.21026323 28 317 C27.39414062 317.6909375 26.78828125 318.381875 26.1640625 319.09375 C10.72323995 335.54598014 -12.64712149 348.42188668 -35.46875 349.203125 C-60.57709867 349.59454698 -84.05275296 341.7463042 -103 325 C-103.80695313 324.31292969 -104.61390625 323.62585938 -105.4453125 322.91796875 C-123.85109745 306.90666679 -141.76208873 282.17650181 -144 257 C-144.06352243 254.32717163 -144.04611347 251.67458139 -144 249 C-145.19882812 249.10441406 -145.19882812 249.10441406 -146.421875 249.2109375 C-157.93439548 249.77845612 -165.57890235 246.14766661 -174.3125 238.8125 C-184.77243882 228.7723019 -190.07759881 217.01824954 -190.41235352 202.60473633 C-190.42065186 201.62142334 -190.4289502 200.63811035 -190.4375 199.625 C-190.44773193 198.67326904 -190.45796387 197.72153809 -190.46850586 196.7409668 C-190.38812982 190.37664598 -189.48469105 185.92838588 -185.25 180.9375 C-183.74344838 179.06192473 -183.74344838 179.06192473 -184.30078125 176.7421875 C-185.04308598 173.83102595 -185.96999895 171.03158801 -186.9375 168.1875 C-193.38380887 146.99672465 -194.67779585 117.99436635 -187 97 C-186.63777344 95.86304688 -186.27554687 94.72609375 -185.90234375 93.5546875 C-183.1998423 85.65788665 -179.33241657 79.39289716 -174 73 C-173.40574219 72.26910156 -172.81148438 71.53820312 -172.19921875 70.78515625 C-166.30981393 64.21474959 -156.79575665 58.41867043 -148 57 C-146.08438746 56.93311409 -144.16664408 56.91468281 -142.25 56.9375 C-141.26515625 56.94652344 -140.2803125 56.95554688 -139.265625 56.96484375 C-138.14414062 56.98224609 -138.14414062 56.98224609 -137 57 C-136.8040625 56.47792969 -136.608125 55.95585937 -136.40625 55.41796875 C-130.91186177 41.89514254 -120.54716318 29.01898862 -107 23 C-99.53638336 20.50282354 -92.68905467 19.5689565 -84.84765625 19.59375 C-83.8262706 19.58291382 -82.80488495 19.57207764 -81.75254822 19.56091309 C-78.52246669 19.52698479 -75.29273532 19.51113123 -72.0625 19.5 C-53.74744743 19.84474824 -53.74744743 19.84474824 -36 16 C-35.29431885 15.75024414 -34.5886377 15.50048828 -33.86157227 15.24316406 C-31.9643551 14.52028037 -30.10544777 13.69920105 -28.25 12.875 C-27.2614502 12.43692017 -27.2614502 12.43692017 -26.25292969 11.98999023 C-20.36921938 9.31450164 -14.76303116 6.17693425 -9.22753906 2.84521484 C-5.77548262 0.80504061 -4.11520874 0 0 0 Z " fill="#26313F" transform="translate(566,79)"/>
<path d="M0 0 C4.12838139 0.51248872 5.89353111 1.52549521 8.75 4.5 C24.08180919 18.66608486 46.95046442 25.25580962 67 29 C68.49080078 29.28810547 68.49080078 29.28810547 70.01171875 29.58203125 C97.55188686 33.43405476 125.57825955 24.21248472 147.5546875 7.90234375 C149.58186835 6.32528772 151.5173206 4.70307369 153.4375 3 C156 1 156 1 160 1 C160.99362358 5.45054566 160.92972079 8.37348258 159.55859375 12.7109375 C159.22504883 13.7831958 158.89150391 14.8554541 158.54785156 15.96020508 C158.18143555 17.0870874 157.81501953 18.21396973 157.4375 19.375 C157.06979492 20.53733154 156.70208984 21.69966309 156.32324219 22.8972168 C153.87931688 30.53527963 151.21445024 38.05242505 148.3046875 45.5234375 C147.01352175 48.963969 145.91958282 52.41506955 144.875 55.9375 C143.5563992 60.37824238 141.96223101 64.45198303 139.99609375 68.63671875 C138.79827055 71.47861302 137.93604615 74.35507267 137.0625 77.3125 C135.44851474 82.74941505 133.4625694 87.88783565 131.22265625 93.09375 C129.6635069 96.79984303 128.31541932 100.5656117 126.96484375 104.3515625 C126.0274795 106.92457044 125.02869335 109.46228956 124 112 C121.86254552 117.28519019 119.92443301 122.63422797 118 128 C115.93825438 133.73449085 113.83582041 139.44608751 111.625 145.125 C107.83674651 154.93530995 104.43066007 164.87958932 100.98046875 174.8125 C100.63153564 175.81684082 100.28260254 176.82118164 99.9230957 177.85595703 C99.24482957 179.80970477 98.5675198 181.7637849 97.89135742 183.71826172 C96.25514369 188.43790133 94.59041592 193.144445 92.875 197.8359375 C91.55284535 201.45402623 90.29312838 205.07873938 89.125 208.75 C86.75105362 215.966797 83.87959949 222.97377725 81 230 C80.01 230 79.02 230 78 230 C73.9591233 219.43828944 70.17729258 208.81170014 66.56362915 198.09680176 C59.18525814 176.24812263 51.2071065 154.66754594 42.88110352 133.16210938 C39.56640979 124.56196139 36.38762299 115.91580976 33.25 107.25 C33.00269135 106.56722992 32.75538269 105.88445984 32.50057983 105.18099976 C31.47522235 102.34997297 30.45004669 99.51888037 29.42503357 96.68772888 C26.28301195 88.01347795 23.11867845 79.34746513 19.9375 70.6875 C19.64372467 69.8875058 19.34994934 69.0875116 19.04727173 68.26327515 C15.14159633 57.64251279 11.11280784 47.08002943 6.9375 36.5625 C0.9974458 21.55621559 0.9974458 21.55621559 -1.25 15.125 C-1.62640625 14.05507813 -2.0028125 12.98515625 -2.390625 11.8828125 C-3.09554939 8.54797786 -2.86023453 6.2853638 -2 3 C-1.34 2.01 -0.68 1.02 0 0 Z " fill="#26303F" transform="translate(445,418)"/>
<path d="M0 0 C6.16506649 1.09734193 11.246961 4.06245029 16.63916016 7.12792969 C25.11018389 11.9270946 33.49649354 15.97661751 42.75 19.0625 C44.01420776 19.48571533 44.01420776 19.48571533 45.30395508 19.91748047 C56.05253568 23.3446858 66.29646731 24.49056548 77.5625 24.4375 C78.79621338 24.43258545 80.02992676 24.4276709 81.30102539 24.42260742 C104.33269543 24.12742664 123.50899399 17.14230509 141.40234375 2.43359375 C143.875 1.125 143.875 1.125 146.57421875 1.8125 C149.36061521 3.40202328 150.51853516 4.18599285 151.875 7.125 C152.51367477 14.52174505 149.22738605 19.4625674 144.875 25.125 C144.31554687 25.87136719 143.75609375 26.61773437 143.1796875 27.38671875 C142.53386719 28.24716797 142.53386719 28.24716797 141.875 29.125 C143.01239973 31.43902013 144.19492613 33.71408313 145.42578125 35.98046875 C155.13049247 54.33549906 160.22319137 75.33174084 158.875 96.125 C158.545 96.785 158.215 97.445 157.875 98.125 C154.48339394 98.38890018 152.4437233 98.4544546 149.4609375 96.7265625 C140.39500412 88.62168213 138.66067951 79.59789641 135.95141602 68.1730957 C134.15038479 60.75906841 131.75299977 53.63781314 129.11010742 46.48486328 C128.67468628 45.29932861 128.67468628 45.29932861 128.23046875 44.08984375 C127.83831177 43.04751587 127.83831177 43.04751587 127.43823242 41.98413086 C126.875 40.125 126.875 40.125 126.875 37.125 C126.14539063 37.43953125 125.41578125 37.7540625 124.6640625 38.078125 C92.50701004 51.2585465 57.48920996 46.86613369 25.62963867 34.08056641 C21.99502706 32.52559253 18.42251051 30.86872293 14.875 29.125 C13.80378906 28.61066406 12.73257812 28.09632813 11.62890625 27.56640625 C4.2953872 23.81319053 -3.49558937 19.06911595 -8.125 12.125 C-8.56841078 8.13430296 -8.43039653 5.76234927 -6.6875 2.125 C-3.88682375 -0.06089366 -3.3754453 -0.20312414 0 0 Z " fill="#E1E5E4" transform="translate(480.125,171.875)"/>
<path d="M0 0 C5.54409678 3.50298652 10.40589874 7.26457122 12.54296875 13.67578125 C13.45765056 23.62878093 13.71982208 33.86548427 8.54296875 42.67578125 C8.10726562 43.4853125 7.6715625 44.29484375 7.22265625 45.12890625 C3.91436324 50.73311846 0.65106089 53.50800737 -5.45703125 55.67578125 C-6.55015625 56.08828125 -7.64328125 56.50078125 -8.76953125 56.92578125 C-17.90586568 58.78401876 -24.5407379 58.07089581 -32.7890625 53.50390625 C-36.7749686 50.77271437 -39.16991374 47.90164738 -41.45703125 43.67578125 C-42.07191406 42.56589844 -42.07191406 42.56589844 -42.69921875 41.43359375 C-46.66020107 33.10187232 -46.89159945 23.47107926 -44.20703125 14.67578125 C-41.31520305 7.41258484 -37.04777759 1.8642271 -29.94140625 -1.5234375 C-19.43553795 -5.70524262 -10.06211231 -5.42298263 0 0 Z " fill="#202C3B" transform="translate(672.45703125,626.32421875)"/>
<path d="M0 0 C3.18778265 1.31261639 4.32127314 2.95171853 6.125 5.875 C7.51311403 12.1804425 7.1332897 14.97103882 3.6875 20.625 C-3.69462958 33.46662452 -9.03312997 46.90399165 -11.59667969 61.52050781 C-12.969247 69.29382545 -15.45991579 75.04337085 -20.875 80.875 C-23.92483996 82.39991998 -26.5173369 82.11062548 -29.875 81.875 C-32.72839841 79.97273439 -33.21082604 78.13234013 -33.875 74.875 C-36.1237852 53.05072397 -27.34095257 26.7877386 -13.74609375 9.953125 C-4.51360976 -0.30090732 -4.51360976 -0.30090732 0 0 Z " fill="#E3E6E6" transform="translate(441.875,189.125)"/>
<path d="M0 0 C1 3 1 3 0.08837891 6.55249023 C-1.75540122 14.25665665 -1.36087447 22.28236547 -1.4140625 30.16015625 C-1.43279717 31.91850164 -1.45237226 33.67683826 -1.4727478 35.43516541 C-1.52383229 40.03651735 -1.56358397 44.63789836 -1.60089111 49.23937988 C-1.64108015 53.94546561 -1.69210414 58.65143288 -1.7421875 63.35742188 C-1.83866595 72.57153108 -1.92315961 81.78570755 -2 91 C-2.99 91.495 -2.99 91.495 -4 92 C-4.33 90.68 -4.66 89.36 -5 88 C-4.67 88 -4.34 88 -4 88 C-4.00333092 87.16221008 -4.00333092 87.16221008 -4.00672913 86.30749512 C-4.02894193 80.46704756 -4.04397307 74.6266121 -4.05493164 68.78613281 C-4.05994424 66.60969556 -4.06675603 64.43326164 -4.07543945 62.25683594 C-4.08764004 59.11913221 -4.09325918 55.98147321 -4.09765625 52.84375 C-4.10281754 51.87884644 -4.10797882 50.91394287 -4.11329651 49.9197998 C-4.11373994 44.51656188 -3.79474133 39.34594168 -3 34 C-3.66 34 -4.32 34 -5 34 C-4.4699529 23.32011479 -3.89918304 12.65627556 -3 2 C-2.01 2 -1.02 2 0 2 C0 1.34 0 0.68 0 0 Z " fill="#EEF3F9" transform="translate(349,538)"/>
<path d="M0 0 C0.33 0 0.66 0 1 0 C0.63551822 7.19066414 -0.83415108 13.11251907 -3.5625 19.75 C-4.28430105 21.57092228 -5.00428969 23.39256381 -5.72265625 25.21484375 C-6.09535645 26.15312012 -6.46805664 27.09139648 -6.85205078 28.05810547 C-8.82349951 33.11041454 -10.65973485 38.21125334 -12.5 43.3125 C-12.85006104 44.27961914 -13.20012207 45.24673828 -13.56079102 46.24316406 C-14.37537538 48.49490068 -15.1884924 50.74715313 -16 53 C-16.66 52.67 -17.32 52.34 -18 52 C-16.68 48.37 -15.36 44.74 -14 41 C-14.66 41 -15.32 41 -16 41 C-15.67 40.01 -15.34 39.02 -15 38 C-14.01 38 -13.02 38 -12 38 C-11.67 35.36 -11.34 32.72 -11 30 C-10.34 30 -9.68 30 -9 30 C-8.9175 29.113125 -8.835 28.22625 -8.75 27.3125 C-7.62168238 19.43039548 -5.18511085 11.75878013 -1 5 C-0.29329272 2.30745009 -0.29329272 2.30745009 0 0 Z " fill="#EAF0F3" transform="translate(600,506)"/>
<path d="M0 0 C1.65 0 3.3 0 5 0 C1.83962297 4.5410468 -1.49944358 6.84842667 -6.25 9.4375 C-6.94585205 9.82220459 -7.6417041 10.20690918 -8.35864258 10.60327148 C-13.33681638 13.27970301 -18.40495592 15.55658761 -23.6875 17.5625 C-24.34588867 17.81378662 -25.00427734 18.06507324 -25.68261719 18.32397461 C-29.23027449 19.59917151 -32.22911488 20.28119411 -36 20 C-35.443125 19.731875 -34.88625 19.46375 -34.3125 19.1875 C-31.9655346 18.02355905 -31.9655346 18.02355905 -29.703125 16.5625 C-26.99404762 14.99655932 -24.37574181 13.87909404 -21.4375 12.8125 C-20.50808594 12.46832031 -19.57867188 12.12414062 -18.62109375 11.76953125 C-16 11 -16 11 -12 11 C-12 10.34 -12 9.68 -12 9 C-11.195625 8.71125 -10.39125 8.4225 -9.5625 8.125 C-6.8673532 7.26737432 -6.8673532 7.26737432 -6 5 C-4.02477154 3.95191959 -2.02518491 2.9479589 0 2 C0 1.34 0 0.68 0 0 Z " fill="#EDF1F2" transform="translate(588,425)"/>
<path d="M0 0 C0.33 0.66 0.66 1.32 1 2 C3.32156597 2.40729228 5.6568787 2.74438677 8 3 C8 3.66 8 4.32 8 5 C8.66 5.103125 9.32 5.20625 10 5.3125 C13.83841009 6.19213564 17.33096691 7.56969896 21 9 C21 9.66 21 10.32 21 11 C21.639375 11.12375 22.27875 11.2475 22.9375 11.375 C23.618125 11.58125 24.29875 11.7875 25 12 C25.495 12.99 25.495 12.99 26 14 C22.61148948 13.22355367 19.55586578 12.00259485 16.36303711 10.62524414 C7.71588633 6.89797379 -0.83147693 4.14866407 -10 2 C-10 1.67 -10 1.34 -10 1 C-6.7 0.67 -3.4 0.34 0 0 Z " fill="#D2DDE6" transform="translate(606,120)"/>
<path d="M0 0 C0.66 0.33 1.32 0.66 2 1 C0.71451591 2.33929505 -0.57858155 3.67128643 -1.875 5 C-2.59429688 5.7425 -3.31359375 6.485 -4.0546875 7.25 C-6 9 -6 9 -8 9 C-8.268125 9.763125 -8.53625 10.52625 -8.8125 11.3125 C-10 14 -10 14 -11.5625 15.4375 C-13.6576525 17.71483967 -13.66634356 19.99709203 -14 23 C-15.32 23 -16.64 23 -18 23 C-18.33 23.66 -18.66 24.32 -19 25 C-17.72754077 16.0766783 -11.58555072 8.89298049 -4.796875 3.33984375 C-3.23494237 2.17518529 -1.62112416 1.08074944 0 0 Z " fill="#E2E9F3" transform="translate(626,609)"/>
<path d="M0 0 C0.97494292 2.5348516 0.98349653 4.10609377 0.5625 6.8125 C-1.31074942 10.63392881 -3.56977732 12.46161419 -6.82421875 15.12109375 C-10.25589164 18.0845312 -13.10754753 21.52001812 -16 25 C-17.32 24.67 -18.64 24.34 -20 24 C-19.53851562 23.65710938 -19.07703125 23.31421875 -18.6015625 22.9609375 C-10.72024215 16.63719034 -5.55190243 8.32785364 0 0 Z " fill="#E1EAF2" transform="translate(665,298)"/>
<path d="M0 0 C0.66 0.33 1.32 0.66 2 1 C0.6368975 7.70646429 -1.2259958 14.04905921 -3.5 20.5 C-3.80808594 21.40492188 -4.11617187 22.30984375 -4.43359375 23.2421875 C-4.73394531 24.10070312 -5.03429687 24.95921875 -5.34375 25.84375 C-5.61380859 26.61912109 -5.88386719 27.39449219 -6.16210938 28.19335938 C-7 30 -7 30 -9 31 C-8.51778304 27.70485075 -7.89097569 24.6344479 -6.9375 21.4375 C-5.85442722 18.1605991 -5.85442722 18.1605991 -6.125 15.3125 C-6 13 -6 13 -4.125 11.25 C-1.02795475 7.97077562 -0.70732038 4.35560444 0 0 Z " fill="#EAEFF1" transform="translate(621,447)"/>
<path d="M0 0 C1.06518412 3.19555235 0.96472421 3.86900006 0.1328125 6.96484375 C-1.19240598 12.46060273 -1.67081386 17.93729302 -2.125 23.5625 C-2.21136719 24.57119141 -2.29773438 25.57988281 -2.38671875 26.61914062 C-2.59656659 29.07902365 -2.80088467 31.53922902 -3 34 C-3.66 34 -4.32 34 -5 34 C-4.4699529 23.32011479 -3.89918304 12.65627556 -3 2 C-2.01 2 -1.02 2 0 2 C0 1.34 0 0.68 0 0 Z " fill="#EDF2F5" transform="translate(349,538)"/>
<path d="M0 0 C1.56255546 3.55458523 0.49162253 6.09404981 -0.84326172 9.5859375 C-1.12186035 10.27945313 -1.40045898 10.97296875 -1.6875 11.6875 C-1.96352051 12.39777344 -2.23954102 13.10804688 -2.52392578 13.83984375 C-4.53269022 18.96283578 -6.68252832 24.00852254 -9 29 C-9.84269359 26.61147358 -10.13369301 25.38630633 -9.29296875 22.95703125 C-8.92816406 22.24933594 -8.56335938 21.54164063 -8.1875 20.8125 C-6.02237464 16.28066865 -4.90406688 11.92002711 -4 7 C-3.79375 5.989375 -3.5875 4.97875 -3.375 3.9375 C-3.189375 2.9784375 -3.189375 2.9784375 -3 2 C-2.01 2 -1.02 2 0 2 C0 1.34 0 0.68 0 0 Z " fill="#ECF1F3" transform="translate(580,564)"/>
<path d="M0 0 C1.59478097 2.44739733 2.08915218 3.53927363 1.52441406 6.45776367 C1.19151367 7.35213135 0.85861328 8.24649902 0.515625 9.16796875 C0.15726563 10.14314453 -0.20109375 11.11832031 -0.5703125 12.12304688 C-0.95960938 13.13431641 -1.34890625 14.14558594 -1.75 15.1875 C-2.12382813 16.21037109 -2.49765625 17.23324219 -2.8828125 18.28710938 C-5.71630102 25.85815051 -5.71630102 25.85815051 -8 27 C-6.96338421 18.27386111 -4.58876797 10.99032311 -1 3 C-0.67 2.01 -0.34 1.02 0 0 Z " fill="#E8EDEF" transform="translate(610,478)"/>
<path d="M0 0 C0.66 0.33 1.32 0.66 2 1 C1.51917969 1.96035156 1.03835938 2.92070313 0.54296875 3.91015625 C-1.37070727 8.37540029 -1.55193669 12.63081229 -1.6875 17.4375 C-1.72166016 18.26443359 -1.75582031 19.09136719 -1.79101562 19.94335938 C-1.87268621 21.96178944 -1.93803724 23.98086884 -2 26 C-5.83508741 20.24736889 -5.11884965 13.68199149 -5 7 C-4.34 7 -3.68 7 -3 7 C-2.690625 6.030625 -2.38125 5.06125 -2.0625 4.0625 C-1 1 -1 1 0 0 Z " fill="#0B131D" transform="translate(397,672)"/>
<path d="M0 0 C1 3 1 3 0.56640625 5.07421875 C-0.25557645 9.32018455 -0.10431281 13.4993482 -0.0625 17.8125 C-0.05798828 18.69615234 -0.05347656 19.57980469 -0.04882812 20.49023438 C-0.03709866 22.66018559 -0.01916495 24.83010172 0 27 C-2 26 -2 26 -3.25 22.25 C-4.74166938 14.98976543 -3.70095334 6.47666834 0 0 Z " fill="#E9EEF0" transform="translate(628,638)"/>
<path d="M0 0 C3.87678864 3.37758572 4.31297987 7.06594632 5 12 C5.362852 17.44277995 4.91331538 22.63427216 4 28 C3.67 28 3.34 28 3 28 C2.92652344 26.28103516 2.92652344 26.28103516 2.8515625 24.52734375 C2.77647199 22.99737465 2.70092694 21.46742782 2.625 19.9375 C2.5940625 19.18533203 2.563125 18.43316406 2.53125 17.65820312 C2.2802716 12.82686885 1.40219286 8.6568763 0 4 C0 2.68 0 1.36 0 0 Z " fill="#1C2531" transform="translate(707,632)"/>
<path d="M0 0 C0.33 0.66 0.66 1.32 1 2 C-0.7926836 5.67971898 -2.66256297 7.71147175 -6 10 C-8.02033207 11.64307104 -10.00680853 13.32390717 -12 15 C-11.50274599 10.68293109 -10.25738888 8.77851658 -7.125 5.8125 C-6.42632812 5.13832031 -5.72765625 4.46414063 -5.0078125 3.76953125 C-3 2 -3 2 0 0 Z " fill="#E4F1F8" transform="translate(344,509)"/>
<path d="M0 0 C0.99 0.33 1.98 0.66 3 1 C-2 6 -2 6 -4.125 8 C-6.11451905 9.97881616 -6.11451905 9.97881616 -7.5625 12.625 C-9 15 -9 15 -12 17 C-11.52328794 12.34160316 -9.73777828 10.17067431 -6.5625 6.8125 C-5.75941406 5.95269531 -4.95632813 5.09289062 -4.12890625 4.20703125 C-2.76477768 2.79284291 -1.38938393 1.38938393 0 0 Z " fill="#1E2631" transform="translate(399,145)"/>
<path d="M0 0 C1.65 0 3.3 0 5 0 C5.19617816 2.54126172 5.38217248 5.08260459 5.5625 7.625 C5.61857422 8.33785156 5.67464844 9.05070313 5.73242188 9.78515625 C6.02495798 14.03668104 5.89547939 17.79456347 5 22 C4.67 22 4.34 22 4 22 C3.87882812 20.74703125 3.75765625 19.4940625 3.6328125 18.203125 C3.46395167 16.55204135 3.29465817 14.90100191 3.125 13.25 C3.04636719 12.425 2.96773438 11.6 2.88671875 10.75 C2.80292969 9.95078125 2.71914063 9.1515625 2.6328125 8.328125 C2.52283936 7.22839355 2.52283936 7.22839355 2.41064453 6.10644531 C1.96110247 3.80047095 1.1362627 2.04608159 0 0 Z " fill="#0F151F" transform="translate(374,672)"/>
<path d="M0 0 C2.16462077 3.88309832 1.81211602 5.6145735 1 10 C1.03222343 12.58190195 1.12314118 15.1519091 1.2578125 17.73046875 C0.94414552 20.49168864 0.12523585 21.2920225 -2 23 C-2.22428282 15.05042008 -1.95403042 7.72888819 0 0 Z " fill="#323942" transform="translate(377,182)"/>
<path d="M0 0 C0 2 0 2 -1.5 3.625 C-1.995 4.07875 -2.49 4.5325 -3 5 C-2.04134491 7.33075929 -2.04134491 7.33075929 1 9 C0 10 0 10 -1.84765625 10.09765625 C-3.8984375 10.06510417 -5.94921875 10.03255208 -8 10 C-7.61508669 5.50934475 -5.14531178 0 0 0 Z " fill="#E6EEEF" transform="translate(552,118)"/>
<path d="M0 0 C0.66 0.33 1.32 0.66 2 1 C-2.97384274 5.54133468 -9.46326477 7.1875 -16.0625 7.1875 C-17.361875 7.125625 -18.66125 7.06375 -20 7 C-20 6.67 -20 6.34 -20 6 C-18.89140625 5.73445312 -17.7828125 5.46890625 -16.640625 5.1953125 C-15.17702189 4.83879379 -13.71348359 4.48200897 -12.25 4.125 C-11.52039063 3.95097656 -10.79078125 3.77695312 -10.0390625 3.59765625 C-7.04949024 2.86385215 -4.37217546 2.18608773 -1.609375 0.8046875 C-1.07828125 0.53914062 -0.5471875 0.27359375 0 0 Z " fill="#E9EDF0" transform="translate(420,691)"/>
<path d="M0 0 C4.21878192 -0.19622241 7.17010894 0.19769832 11 2 C10.34 3.32 9.68 4.64 9 6 C5.21213403 5.4739075 2.82847776 4.61896089 0 2 C0 1.34 0 0.68 0 0 Z " fill="#121A27" transform="translate(406,270)"/>
<path d="M0 0 C1.68425161 4.05241145 0.14931311 7.31706259 -1.3125 11.1875 C-1.53873047 11.82880859 -1.76496094 12.47011719 -1.99804688 13.13085938 C-3.73334478 17.86667239 -3.73334478 17.86667239 -6 19 C-5.69024532 17.22868439 -5.37709575 15.45796222 -5.0625 13.6875 C-4.80146484 12.20830078 -4.80146484 12.20830078 -4.53515625 10.69921875 C-4 8 -4 8 -3 5 C-2.34 5 -1.68 5 -1 5 C-0.67 3.35 -0.34 1.7 0 0 Z " fill="#E4E7E8" transform="translate(553,639)"/>
<path d="M0 0 C0.66 0 1.32 0 2 0 C2.33 0.99 2.66 1.98 3 3 C1.99537873 4.74998544 0.98637909 6.49820601 -0.07421875 8.21484375 C-1.28482814 10.54922557 -1.31319726 12.41612258 -1 15 C-1.99 14.67 -2.98 14.34 -4 14 C-3.53328373 8.58609132 -2.75702189 4.79482068 0 0 Z " fill="#E1E8F3" transform="translate(533,629)"/>
<path d="M0 0 C0.66 0.33 1.32 0.66 2 1 C1.4083899 2.79585197 0.80125808 4.58659629 0.1875 6.375 C-0.14894531 7.37273438 -0.48539063 8.37046875 -0.83203125 9.3984375 C-2 12 -2 12 -5 14 C-4.58669586 8.00708997 -3.68096635 4.74963401 0 0 Z " fill="#DBECF4" transform="translate(573,520)"/>
<path d="M0 0 C1.32 0.66 2.64 1.32 4 2 C0.04 4.97 -3.92 7.94 -8 11 C-8 7.47190093 -7.35723489 6.53184488 -5 4 C-4.01 4 -3.02 4 -2 4 C-1.34 2.68 -0.68 1.36 0 0 Z " fill="#EDF1F1" transform="translate(364,520)"/>
<path d="M0 0 C0.33 0 0.66 0 1 0 C1 2.31 1 4.62 1 7 C0.34 7 -0.32 7 -1 7 C-1.66 8.98 -2.32 10.96 -3 13 C-3.66 13 -4.32 13 -5 13 C-4.44516583 8.33939297 -3.45003386 3.45003386 0 0 Z " fill="#E5EDF6" transform="translate(543,603)"/>
<path d="M0 0 C0.66 0 1.32 0 2 0 C2 0.99 2 1.98 2 3 C0.02 3.99 0.02 3.99 -2 5 C-1.34 3.35 -0.68 1.7 0 0 Z M-3 5 C-2 8 -2 8 -3 11 C-4.95597184 12.39712274 -6.95436401 13.73779907 -9 15 C-7.6302836 11.00499382 -5.74277578 8.19990508 -3 5 Z " fill="#D8E1EB" transform="translate(806,772)"/>
<path d="M0 0 C0.99 0.33 1.98 0.66 3 1 C-1.75522045 5.61935701 -5.40653991 8.76372623 -12 10 C-8.30166776 6.07752641 -4.57577783 2.8810453 0 0 Z " fill="#E5EAEC" transform="translate(582,406)"/>
<path d="M0 0 C4.69023454 0.56606279 9.34500026 1.18537505 14 2 C14 2.66 14 3.32 14 4 C15.32 4 16.64 4 18 4 C18 4.66 18 5.32 18 6 C11.58008874 5.42934122 5.98410537 3.32655091 0 1 C0 0.67 0 0.34 0 0 Z " fill="#303942" transform="translate(512,187)"/>
<path d="M0 0 C0.9075 0.103125 1.815 0.20625 2.75 0.3125 C1.375 1.8125 1.375 1.8125 -0.25 3.3125 C-0.91 3.3125 -1.57 3.3125 -2.25 3.3125 C-2.683125 4.5190625 -2.683125 4.5190625 -3.125 5.75 C-4.25 8.3125 -4.25 8.3125 -6.25 9.3125 C-7 7.625 -7 7.625 -7.25 5.3125 C-5.16842411 1.64892643 -4.27562648 0.41111793 0 0 Z " fill="#C3CDD5" transform="translate(479.25,171.6875)"/>
<path d="M0 0 C0.66 0 1.32 0 2 0 C1.67 5.28 1.34 10.56 1 16 C0.34 16 -0.32 16 -1 16 C-1.02712153 14.083412 -1.04645097 12.1667127 -1.0625 10.25 C-1.07410156 9.18265625 -1.08570313 8.1153125 -1.09765625 7.015625 C-1.01510087 4.46631499 -0.74617558 2.42066409 0 0 Z " fill="#CACFD7" transform="translate(409,248)"/>
<path d="M0 0 C0.99 0 1.98 0 3 0 C2.52431912 4.99464924 1.04839109 8.02785403 -2 12 C-2.99 12.495 -2.99 12.495 -4 13 C-4 11.35 -4 9.7 -4 8 C-3.01 8 -2.02 8 -1 8 C-0.67 5.36 -0.34 2.72 0 0 Z " fill="#E4ECEE" transform="translate(437,668)"/>
<path d="M0 0 C0 4.38968456 -2.12805101 5.76905739 -5 9 C-5.99 8.67 -6.98 8.34 -8 8 C-6.9802693 4.22699642 -6.34127338 3.19793856 -2.875 1.1875 C-1.92625 0.795625 -0.9775 0.40375 0 0 Z " fill="#192127" transform="translate(425,267)"/>
<path d="M0 0 C0.33 0 0.66 0 1 0 C1.02690844 2.62506802 1.04679404 5.24986173 1.0625 7.875 C1.07087891 8.62136719 1.07925781 9.36773437 1.08789062 10.13671875 C1.11328125 15.7734375 1.11328125 15.7734375 0 18 C-1.98 18 -3.96 18 -6 18 C-6.33 17.34 -6.66 16.68 -7 16 C-5.02 15.34 -3.04 14.68 -1 14 C-0.67 9.38 -0.34 4.76 0 0 Z " fill="#90959B" transform="translate(638,252)"/>
<path d="M0 0 C4.09274885 1.57413417 7.35956013 4.54102377 10 8 C10 8.99 10 9.98 10 11 C9.34 11 8.68 11 8 11 C6.05124617 8.75598043 4.33181733 6.66363467 3 4 C2.01 4 1.02 4 0 4 C0 2.68 0 1.36 0 0 Z " fill="#E1E6E6" transform="translate(424,511)"/>
<path d="M0 0 C0.33 0.66 0.66 1.32 1 2 C3.02463255 2.65213292 3.02463255 2.65213292 5 3 C5 3.33 5 3.66 5 4 C-0.4185766 4.22577402 -4.77487721 3.46670113 -10 2 C-10 1.67 -10 1.34 -10 1 C-6.7 0.67 -3.4 0.34 0 0 Z " fill="#E2EBF1" transform="translate(606,120)"/>
<path d="M0 0 C1.65 0.33 3.3 0.66 5 1 C5 1.99 5 2.98 5 4 C3.68 4 2.36 4 1 4 C0.34 5.98 -0.32 7.96 -1 10 C-1.66 9.67 -2.32 9.34 -3 9 C-2.5020163 5.26512223 -2.12508244 3.18762365 0 0 Z " fill="#292B32" transform="translate(445,418)"/>
<path d="M0 0 C0.33 0 0.66 0 1 0 C1.125 2.875 1.125 2.875 1 6 C-1 8 -1 8 -4.5 8.3125 C-6.2325 8.1578125 -6.2325 8.1578125 -8 8 C-8.66 7.01 -9.32 6.02 -10 5 C-7.36 5.33 -4.72 5.66 -2 6 C-1.34 4.02 -0.68 2.04 0 0 Z " fill="#C2C6C7" transform="translate(637,260)"/>
<path d="M0 0 C0.33 1.32 0.66 2.64 1 4 C-2.3111013 5.10370043 -4.24748949 4.92673641 -7.6875 4.5625 C-8.68136719 4.46066406 -9.67523438 4.35882813 -10.69921875 4.25390625 C-11.45847656 4.17011719 -12.21773438 4.08632812 -13 4 C-10.21374112 2.45346979 -7.98129011 1.71692427 -4.8125 1.4375 C-1.21809061 1.42538466 -1.21809061 1.42538466 0 0 Z " fill="#EDF2F4" transform="translate(429,132)"/>
<path d="M0 0 C2.40243465 2.15344283 3.60244944 3.96874765 4.6875 7 C4.93886719 7.680625 5.19023437 8.36125 5.44921875 9.0625 C6 11 6 11 6 14 C5.34 14 4.68 14 4 14 C3.32471777 12.42032193 2.66010306 10.83608097 2 9.25 C1.62875 8.36828125 1.2575 7.4865625 0.875 6.578125 C0 4 0 4 0 0 Z " fill="#363D46" transform="translate(505,667)"/>
<path d="M0 0 C0.90123561 3.01329159 1.08996269 5.49438323 0.8125 8.625 C0.72935547 9.78902344 0.72935547 9.78902344 0.64453125 10.9765625 C0 13 0 13 -2.05078125 14.2734375 C-2.69402344 14.51320313 -3.33726562 14.75296875 -4 15 C-3.43179252 9.54520815 -2.05362055 5.08940744 0 0 Z " fill="#333D47" transform="translate(588,546)"/>
<path d="M0 0 C-2.11997834 1.19733988 -4.24513676 2.38298713 -6.375 3.5625 C-6.97828125 3.90474609 -7.5815625 4.24699219 -8.203125 4.59960938 C-9.76978241 5.46127095 -11.38290862 6.23718183 -13 7 C-13.66 6.67 -14.32 6.34 -15 6 C-13.73299277 5.0158875 -12.4612381 4.03788503 -11.1875 3.0625 C-10.47980469 2.51722656 -9.77210938 1.97195312 -9.04296875 1.41015625 C-5.71596733 -0.88630171 -3.76439166 -1.16825948 0 0 Z " fill="#E5ECED" transform="translate(413,138)"/>
<path d="M0 0 C0.99 0 1.98 0 3 0 C1.48328036 4.55015893 -2.16891053 6.50057264 -6 9 C-6 8.01 -6 7.02 -6 6 C-5.195625 5.7525 -4.39125 5.505 -3.5625 5.25 C-0.828919 4.27761141 -0.828919 4.27761141 -0.1875 1.875 C-0.125625 1.25625 -0.06375 0.6375 0 0 Z " fill="#E7EEF0" transform="translate(692,688)"/>
<path d="M0 0 C0 0.66 0 1.32 0 2 C1.32 2.33 2.64 2.66 4 3 C3.34 3.66 2.68 4.32 2 5 C-0.95662966 4.77256695 -2.55033688 4.38764062 -4.8125 2.4375 C-5.204375 1.963125 -5.59625 1.48875 -6 1 C-3.92446352 0.4465236 -2.15634036 0 0 0 Z " fill="#1C2836" transform="translate(416,498)"/>
<path d="M0 0 C0.66 0.33 1.32 0.66 2 1 C-0.70109743 4.83840161 -3.74300779 8.87150389 -8 11 C-7.43040847 7.37386801 -6.07625466 5.74482259 -3.4375 3.25 C-2.79683594 2.63640625 -2.15617187 2.0228125 -1.49609375 1.390625 C-1.00238281 0.93171875 -0.50867188 0.4728125 0 0 Z " fill="#1B2530" transform="translate(448,109)"/>
<path d="M0 0 C0.66 0 1.32 0 2 0 C1.6875 1.9375 1.6875 1.9375 1 4 C0.01 4.33 -0.98 4.66 -2 5 C-2.33 5.99 -2.66 6.98 -3 8 C-3.99 7.67 -4.98 7.34 -6 7 C-5.04882866 5.8274869 -4.08882991 4.66212985 -3.125 3.5 C-2.59132813 2.8503125 -2.05765625 2.200625 -1.5078125 1.53125 C-0.76144531 0.77328125 -0.76144531 0.77328125 0 0 Z " fill="#1A2026" transform="translate(598,421)"/>
<path d="M0 0 C0.66 0 1.32 0 2 0 C0.63855967 5.19822672 -1.46730171 8.09543873 -5 12 C-5.33 11.34 -5.66 10.68 -6 10 C-4.85546875 7.6171875 -4.85546875 7.6171875 -3.1875 4.875 C-2.64480469 3.96492188 -2.10210938 3.05484375 -1.54296875 2.1171875 C-1.03378906 1.41851562 -0.52460937 0.71984375 0 0 Z " fill="#E2F3FA" transform="translate(613,366)"/>
<path d="M0 0 C1.32 0.33 2.64 0.66 4 1 C4 2.65 4 4.3 4 6 C1.69 5.34 -0.62 4.68 -3 4 C-2.01 2.68 -1.02 1.36 0 0 Z " fill="#182330" transform="translate(419,438)"/>
<path d="M0 0 C0.95465783 2.16967689 1.14401212 3.56328793 0.3984375 5.82421875 C-0.35870385 7.5684743 -1.17609198 9.28627131 -2 11 C-3.23666047 7.42742531 -2.89093449 4.64473199 -2 1 C-1.34 0.67 -0.68 0.34 0 0 Z " fill="#1B2632" transform="translate(603,428)"/>
<path d="M0 0 C-9 6 -9 6 -12 6 C-11 3 -11 3 -9.00390625 1.796875 C-8.19824219 1.45140625 -7.39257812 1.1059375 -6.5625 0.75 C-5.75941406 0.39421875 -4.95632813 0.0384375 -4.12890625 -0.328125 C-2 -1 -2 -1 0 0 Z " fill="#E4ECE9" transform="translate(568,418)"/>
<path d="M0 0 C0.66 0.66 1.32 1.32 2 2 C-1.96 2 -5.92 2 -10 2 C-5.92992446 -0.71338369 -4.71663583 -1.29707485 0 0 Z " fill="#141C2C" transform="translate(370,669)"/>
<path d="M0 0 C0.66 0.33 1.32 0.66 2 1 C0.37829621 2.00533667 -1.24747237 3.00411907 -2.875 4 C-4.23238281 4.8353125 -4.23238281 4.8353125 -5.6171875 5.6875 C-8 7 -8 7 -10 7 C-10 6.34 -10 5.68 -10 5 C-8.38007835 4.13624104 -6.75388139 3.28424146 -5.125 2.4375 C-4.22007812 1.96183594 -3.31515625 1.48617187 -2.3828125 0.99609375 C-1.20332031 0.50302734 -1.20332031 0.50302734 0 0 Z " fill="#DEE8ED" transform="translate(554,82)"/>
<path d="M0 0 C0.66 0.33 1.32 0.66 2 1 C-0.80804268 3.96404505 -3.18315774 6.44499019 -7 8 C-5.50902342 4.2047869 -3.24299151 2.38957269 0 0 Z " fill="#151C23" transform="translate(640,626)"/>
<path d="M0 0 C0.99 0.495 0.99 0.495 2 1 C2.4140625 3.06640625 2.4140625 3.06640625 2.625 5.5625 C2.69976562 6.38878906 2.77453125 7.21507812 2.8515625 8.06640625 C2.92503906 9.02353516 2.92503906 9.02353516 3 10 C2.01 9.67 1.02 9.34 0 9 C0 6.03 0 3.06 0 0 Z " fill="#323B46" transform="translate(418,541)"/>
<path d="M0 0 C0 0.66 0 1.32 0 2 C-3.67410785 3.17571451 -7.16929183 3.07366746 -11 3 C-7.63114177 -0.36885823 -4.54278442 -0.10095076 0 0 Z " fill="#E5EBED" transform="translate(550,425)"/>
<path d="M0 0 C0.99 0.495 0.99 0.495 2 1 C2.33333333 3 2.66666667 5 3 7 C3.66 7.33 4.32 7.66 5 8 C5 9.32 5 10.64 5 12 C2.43470546 10.71735273 2.33500137 9.77227651 1.375 7.125 C1.11460937 6.42632813 0.85421875 5.72765625 0.5859375 5.0078125 C0 3 0 3 0 0 Z " fill="#E6EAEF" transform="translate(466,555)"/>
<path d="M0 0 C1.09898702 3.29696105 0.87124444 4.40494903 0.0625 7.6875 C-0.22947266 8.89986328 -0.22947266 8.89986328 -0.52734375 10.13671875 C-0.68332031 10.75160156 -0.83929688 11.36648438 -1 12 C-1.33 12 -1.66 12 -2 12 C-2.33 8.7 -2.66 5.4 -3 2 C-2.01 2 -1.02 2 0 2 C0 1.34 0 0.68 0 0 Z " fill="#E2E7E8" transform="translate(349,538)"/>
<path d="M0 0 C0.33 0.66 0.66 1.32 1 2 C-0.68474722 5.36949443 -1.8191658 6.87944386 -5 9 C-4.50769231 3.46153846 -4.50769231 3.46153846 -1.9375 1.125 C-1.298125 0.75375 -0.65875 0.3825 0 0 Z " fill="#DCE7EF" transform="translate(344,509)"/>
<path d="M0 0 C-1.98611612 1.98611612 -3.44143249 2.91454712 -6 4 C-6.99 4 -7.98 4 -9 4 C-9.33 4.99 -9.66 5.98 -10 7 C-9.75 4.625 -9.75 4.625 -9 2 C-6.09557968 -0.17831524 -3.54875053 -0.19715281 0 0 Z " fill="#E1ECEF" transform="translate(365,499)"/>
<path d="M0 0 C0.66 1.32 1.32 2.64 2 4 C1.34 4.66 0.68 5.32 0 6 C-0.70710678 7.64991582 -1.37943989 9.31562256 -2 11 C-2.95465783 8.83032311 -3.14401212 7.43671207 -2.3984375 5.17578125 C-1.64129615 3.4315257 -0.82390802 1.71372869 0 0 Z " fill="#252A31" transform="translate(626,442)"/>
<path d="M0 0 C1.32 0.66 2.64 1.32 4 2 C3.319375 2.5878125 3.319375 2.5878125 2.625 3.1875 C0.72357081 5.30832487 -0.06204028 7.33042235 -1 10 C-2.46726798 6.18510326 -1.43336419 3.70988378 0 0 Z " fill="#E3E8F1" transform="translate(604,429)"/>
<path d="M0 0 C0 0.66 0 1.32 0 2 C-2.88211302 2.96070434 -4.69850044 3.10581883 -7.6875 3.0625 C-8.89986328 3.04896484 -8.89986328 3.04896484 -10.13671875 3.03515625 C-11.05904297 3.01775391 -11.05904297 3.01775391 -12 3 C-12 2.67 -12 2.34 -12 2 C-10.7625 1.67 -9.525 1.34 -8.25 1 C-7.55390625 0.814375 -6.8578125 0.62875 -6.140625 0.4375 C-4 0 -4 0 0 0 Z " fill="#F4F9FA" transform="translate(412,695)"/>
<path d="M0 0 C2.51083114 1.25541557 2.87125446 2.50063488 4 5 C4.66 5 5.32 5 6 5 C6.33 6.32 6.66 7.64 7 9 C5.82460004 8.07347299 4.65989423 7.13336613 3.5 6.1875 C2.52546875 5.40439453 2.52546875 5.40439453 1.53125 4.60546875 C0 3 0 3 0 0 Z " fill="#E6EAED" transform="translate(410,526)"/>
<path d="M0 0 C6.625 0.75 6.625 0.75 10 3 C6.42355152 4.2380014 3.66305234 3.74926071 0 3 C0 2.01 0 1.02 0 0 Z " fill="#E3E7EB" transform="translate(497,424)"/>
<path d="M0 0 C-1 3 -1 3 -3.9375 4.75 C-5.4534375 5.36875 -5.4534375 5.36875 -7 6 C-7.66 5.67 -8.32 5.34 -9 5 C-6.45523312 2.20075644 -3.92372883 0 0 0 Z " fill="#E6ECEE" transform="translate(645,622)"/>
<path d="M0 0 C0.99 0.495 0.99 0.495 2 1 C2.33 1.99 2.66 2.98 3 4 C4.49985609 5.66710346 4.49985609 5.66710346 6 7 C5.01 7.66 4.02 8.32 3 9 C0 3.375 0 3.375 0 0 Z " fill="#222737" transform="translate(458,467)"/>
<path d="M0 0 C0.598125 0.45375 1.19625 0.9075 1.8125 1.375 C3.50590652 2.63295913 5.24477086 3.82984724 7 5 C4.36 5 1.72 5 -1 5 C-0.67 3.35 -0.34 1.7 0 0 Z " fill="#DDE3E4" transform="translate(545,123)"/>
<path d="M0 0 C3.42436208 2.9836935 3.57781494 5.5248384 4 10 C3.34 9.67 2.68 9.34 2 9 C1.3671875 6.93359375 1.3671875 6.93359375 0.875 4.4375 C0.70742188 3.61121094 0.53984375 2.78492188 0.3671875 1.93359375 C0.24601562 1.29550781 0.12484375 0.65742187 0 0 Z " fill="#E1E4E8" transform="translate(472,572)"/>
<path d="M0 0 C0.66 0.33 1.32 0.66 2 1 C0.75023244 4.65316671 0.32901247 5.78065836 -3 8 C-2.45276317 4.62537285 -1.9451 2.91765 0 0 Z " fill="#E7F3FC" transform="translate(573,520)"/>
<path d="M0 0 C1.1875 1.625 1.1875 1.625 2 4 C0.625 7.25 0.625 7.25 -1 10 C-2.46726798 6.18510326 -1.43336419 3.70988378 0 0 Z " fill="#F0F3F4" transform="translate(610,478)"/>
<path d="M0 0 C2.52259061 1.97420135 2.9929808 2.96745642 3.6875 6.1875 C3.790625 7.115625 3.89375 8.04375 4 9 C3.34 9 2.68 9 2 9 C0.50178941 5.62902617 0 3.79557881 0 0 Z " fill="#E4E7EC" transform="translate(495,636)"/>
<path d="M0 0 C0.93065133 2.60582371 1.14917407 3.64198224 0.0625 6.25 C-0.4634375 7.11625 -0.4634375 7.11625 -1 8 C-1.66 7.01 -2.32 6.02 -3 5 C-2.67 4.01 -2.34 3.02 -2 2 C-1.34 2 -0.68 2 0 2 C0 1.34 0 0.68 0 0 Z " fill="#EBF0F2" transform="translate(556,630)"/>
<path d="M0 0 C0.33 0.99 0.66 1.98 1 3 C-0.4375 5.6875 -0.4375 5.6875 -2 8 C-2.93423645 4.98968256 -3.04449911 4.13349732 -2 1 C-1.34 0.67 -0.68 0.34 0 0 Z " fill="#E2EBF6" transform="translate(551,581)"/>
<path d="M0 0 C1.5625 1.5 1.5625 1.5 3 4 C2.96823234 6.77437543 2.50364148 9.25286467 2 12 C1.67 12 1.34 12 1 12 C0.01751476 7.9472484 -0.08159574 4.16138263 0 0 Z " fill="#E9EAF0" transform="translate(819,573)"/>
<path d="M0 0 C0.625 1.875 0.625 1.875 1 4 C0.34 4.66 -0.32 5.32 -1 6 C-1.99 5.67 -2.98 5.34 -4 5 C-3.67 4.01 -3.34 3.02 -3 2 C-2.01 2 -1.02 2 0 2 C0 1.34 0 0.68 0 0 Z " fill="#E6ECE9" transform="translate(580,564)"/>
<path d="M0 0 C0.99 0.33 1.98 0.66 3 1 C3.33 3.64 3.66 6.28 4 9 C1.47740939 7.02579865 1.0070192 6.03254358 0.3125 2.8125 C0.209375 1.884375 0.10625 0.95625 0 0 Z " fill="#EBEDF3" transform="translate(460,540)"/>
<path d="M0 0 C0.53625 0.391875 1.0725 0.78375 1.625 1.1875 C-4.66071429 3.61607143 -4.66071429 3.61607143 -8.375 2.1875 C-2.95961538 -1.0125 -2.95961538 -1.0125 0 0 Z " fill="#EDF4F2" transform="translate(358.375,456.8125)"/>
<path d="M0 0 C0.33 1.32 0.66 2.64 1 4 C0.34 4 -0.32 4 -1 4 C-0.67 4.99 -0.34 5.98 0 7 C-0.99 7.33 -1.98 7.66 -3 8 C-2.25 2.25 -2.25 2.25 0 0 Z " fill="#DFECF7" transform="translate(619,353)"/>
<path d="M0 0 C0.99 0 1.98 0 3 0 C2.34 1.98 1.68 3.96 1 6 C0.01 5.34 -0.98 4.68 -2 4 C-2 3.34 -2 2.68 -2 2 C-1.34 2 -0.68 2 0 2 C0 1.34 0 0.68 0 0 Z " fill="#2F3C4F" transform="translate(662,248)"/>
<path d="M0 0 C1.32 0 2.64 0 4 0 C4 0.66 4 1.32 4 2 C4.639375 2.12375 5.27875 2.2475 5.9375 2.375 C6.618125 2.58125 7.29875 2.7875 8 3 C8.33 3.66 8.66 4.32 9 5 C5.51694958 4.35499066 2.93797836 2.95865224 0 1 C0 0.67 0 0.34 0 0 Z " fill="#E6EBF2" transform="translate(623,129)"/>
<path d="M0 0 C1.32 0.66 2.64 1.32 4 2 C3.67 2.66 3.34 3.32 3 4 C1.02 4 -0.96 4 -3 4 C-2.01 2.68 -1.02 1.36 0 0 Z " fill="#E0E9EA" transform="translate(565,120)"/>
</svg>
